PathFileType	4	(X/Y/Z)	c:/Users/goper/Files/vsCode/490R/osim_files/C03/C03_Slow_02.trc
DataRate	CameraRate	NumFrames	NumMarkers	Units                	OrigDataRate	OrigDataStartFrame	OrigNumFrames
250.00	250.00	5	36	mm	250.0	2593	3456
                Frame#	Time	LPSIS			LASIS			LTH1			LTH2			LTH3			LTH4			LLFE			LMFE			LSH1			LSH2			LSH3			LSH4			LLMAL			LMMAL			LCAL			LMTP5			LTOE			LMTP1			RPSIS			RASIS			RTH1			RTH2			RTH3			RTH4			RLFE			RMFE			RSH1			RSH2			RSH3			RSH4			RLMAL			RMMAL			RCAL			RMTP1			RTOE			RMTP5		
		X1	Y1	Z1	X2	Y2	Z2	X3	Y3	Z3	X4	Y4	Z4	X5	Y5	Z5	X6	Y6	Z6	X7	Y7	Z7	X8	Y8	Z8	X9	Y9	Z9	X10	Y10	Z10	X11	Y11	Z11	X12	Y12	Z12	X13	Y13	Z13	X14	Y14	Z14	X15	Y15	Z15	X16	Y16	Z16	X17	Y17	Z17	X18	Y18	Z18	X19	Y19	Z19	X20	Y20	Z20	X21	Y21	Z21	X22	Y22	Z22	X23	Y23	Z23	X24	Y24	Z24	X25	Y25	Z25	X26	Y26	Z26	X27	Y27	Z27	X28	Y28	Z28	X29	Y29	Z29	X30	Y30	Z30	X31	Y31	Z31	X32	Y32	Z32	X33	Y33	Z33	X34	Y34	Z34	X35	Y35	Z35	X36	Y36	Z36

2593	10.36800	-1815.56934	1021.25159	307.69867	-1999.75720	975.96014	326.37646	-1948.98865	618.39514	389.92960	-1963.91724	559.19873	379.73886	-2022.07446	632.79034	372.47501	-2027.18848	571.71686	364.66946	-1995.93591	478.86414	363.89447	-1982.47375	475.59647	251.84302	-1967.48145	285.10400	366.61359	-1981.68665	241.14772	359.65439	-2026.00439	301.95377	369.43265	-2032.61316	254.72723	362.74744	-2054.09985	95.57504	327.65045	-2071.86475	115.22442	249.97578	-1995.94775	60.92950	288.39926	-2199.13989	55.00503	330.86066	-2224.42114	82.18645	277.91684	-2201.03589	67.01337	237.15849	-1810.51270	1005.99066	196.40007	-1974.02466	958.45374	124.18989	-1794.00903	594.99957	135.54340	-1786.57385	533.64740	144.37975	-1845.24609	588.23138	96.46539	-1846.32458	525.94415	97.74792	-1824.12561	455.23254	108.20061	-1852.74817	458.43295	217.55753	-1631.61316	384.88898	120.95844	-1600.09827	349.30704	122.68433	-1668.02673	340.06152	96.94063	-1632.90308	314.40845	101.61885	-1519.79883	206.72878	126.52647	-1540.52197	194.55112	203.92822	-1443.17883	232.89691	171.30759	-1560.65466	66.06636	205.70525	-1619.03760	54.92312	167.12611	-1525.02271	73.74561	103.96529
2594	10.37200	-1820.30151	1022.30530	307.83643	-2004.64270	976.83655	326.91843	-1952.09448	619.27472	390.74210	-1966.59326	559.88641	380.36172	-2025.32117	633.25891	372.98355	-2029.45154	572.00165	365.00327	-1998.13416	479.40176	364.53653	-1984.07092	476.10242	252.61685	-1968.61401	285.76184	367.09360	-1983.10791	242.04228	359.98669	-2027.47107	302.29767	369.85706	-2033.81702	255.01888	363.17972	-2054.27173	95.55085	327.82980	-2071.97314	115.30289	250.20111	-1995.99048	61.04637	288.48392	-2199.23218	54.93021	330.69217	-2224.52222	81.94223	277.70215	-2201.06226	66.78767	236.99904	-1815.32434	1006.62311	196.57372	-1978.78235	959.01593	124.86559	-1801.95398	593.78381	136.34903	-1795.27759	532.46942	145.46298	-1853.16199	587.61475	96.80888	-1854.72046	525.22015	97.93698	-1833.42090	454.74014	108.08967	-1862.68665	457.73743	217.55635	-1640.63220	386.41385	121.17652	-1608.61487	351.14914	123.00922	-1676.30322	341.18790	97.07128	-1641.00537	315.93127	101.69592	-1526.80249	210.23271	126.87157	-1547.46704	197.46202	204.41473	-1451.80225	238.84084	171.75365	-1564.31970	68.00990	205.69104	-1624.95142	55.39839	167.12814	-1529.04993	77.01607	104.42511
2595	10.37600	-1825.02356	1023.28705	308.07498	-2009.44922	977.59119	327.44171	-1955.46252	620.13348	391.29590	-1969.27795	560.62140	381.12326	-2028.52258	633.57819	373.59207	-2032.25781	572.27454	365.69449	-2000.29688	479.84143	365.21613	-1985.52173	476.44101	253.35744	-1969.99573	286.31506	367.74377	-1983.96936	242.16890	360.90155	-2028.90747	302.57190	370.25873	-2034.99854	255.23619	363.57220	-2054.47217	95.51140	327.99808	-2072.04883	115.35323	250.44656	-1996.05847	61.12894	288.60297	-2199.32837	54.84321	330.53647	-2224.63330	81.70320	277.54099	-2201.07666	66.53974	236.83380	-1819.76880	1007.39471	196.75079	-1983.32312	959.48584	125.46177	-1810.14331	592.43915	137.15802	-1804.42151	530.97235	145.79506	-1861.11560	587.00757	97.12199	-1863.32422	524.65271	98.28922	-1842.84619	454.21555	108.05432	-1872.59045	457.10858	217.60788	-1649.63354	387.81522	121.48766	-1617.31580	352.97372	123.37768	-1684.80237	342.22806	97.19953	-1649.18091	317.34726	101.93488	-1534.55103	213.04445	127.80935	-1554.73926	200.31001	204.86584	-1460.85388	244.66470	172.21866	-1568.10876	69.96545	205.73570	-1631.09143	55.90775	167.12828	-1533.18628	80.26377	104.77389
2596	10.38000	-1829.79236	1024.18115	308.35800	-2014.24158	978.23926	327.90506	-1958.30505	620.80817	391.92914	-1971.95264	561.25500	381.77032	-2031.74353	633.81549	374.31143	-2035.10229	572.45892	366.47095	-2002.46960	480.21933	365.82547	-1987.06799	476.74344	254.00818	-1971.29431	286.77829	368.31232	-1984.93457	242.56146	361.37857	-2030.26892	302.86554	370.62387	-2036.06787	255.43228	363.84937	-2054.66821	95.52917	328.12698	-2072.12256	115.37653	250.58928	-1996.13208	61.21008	288.70221	-2199.41553	54.80873	330.36710	-2224.76147	81.46286	277.30258	-2201.09619	66.28189	236.64583	-1824.71375	1007.80933	197.09750	-1987.91675	959.96173	125.99594	-1818.39868	591.22101	137.79561	-1813.18066	529.75751	146.74809	-1869.14404	586.41174	97.48045	-1872.24768	524.16956	98.39843	-1852.30115	453.81595	108.02956	-1882.49109	456.71793	217.70328	-1658.90283	389.25238	121.57242	-1626.25806	354.71579	123.65456	-1693.49927	343.20499	97.44076	-1657.67517	318.71671	102.25221	-1541.91882	216.25903	128.22343	-1562.21594	203.11719	205.43576	-1470.59546	250.24611	172.77817	-1572.23767	71.70643	205.78041	-1637.45190	56.45037	167.12656	-1537.40149	83.46420	105.11533
2597	10.38400	-1834.38745	1025.09180	308.70349	-2018.89636	978.81738	328.35675	-1961.21399	621.42584	392.40274	-1974.52551	561.75342	382.47464	-2034.77856	633.87567	375.08746	-2037.83459	572.52454	367.39185	-2004.54089	480.57611	366.33572	-1988.72278	476.96716	254.57729	-1972.52734	287.18054	368.75400	-1986.16699	243.00221	361.93491	-2031.59473	303.05380	370.87582	-2037.12000	255.62375	364.15051	-2054.83643	95.51472	328.20743	-2072.19019	115.35371	250.77615	-1996.14905	61.28800	288.73920	-2199.45093	54.79073	330.21686	-2224.81714	81.20303	277.05826	-2201.11938	66.01237	236.46158	-1829.26245	1008.40424	197.36906	-1992.27759	960.36218	126.49641	-1826.76233	590.01379	138.52849	-1822.25781	528.24402	147.47513	-1877.17786	585.88190	97.74300	-1880.93396	523.60663	98.60632	-1861.81580	453.43866	107.99402	-1891.88989	456.48959	217.99779	-1668.15979	390.61838	121.75291	-1635.25391	356.38379	123.86295	-1702.36609	344.13333	97.65102	-1666.21167	320.02145	102.49369	-1549.50952	219.22711	128.73248	-1569.78430	205.72751	205.89558	-1480.89978	255.59549	173.27765	-1576.42175	73.25014	205.48384	-1644.02771	57.02547	167.12305	-1541.72375	86.43646	105.41084
